<?xml version="1.0" encoding="UTF-8"?>
<svg xmlns="http://www.w3.org/2000/svg" xmlns:xlink="http://www.w3.org/1999/xlink" width="396" height="378" viewBox="0 0 396 378">
<defs>
<g>
<g id="glyph-0-0">
<path d="M 6.515625 4.203125 L 1.46875 4.203125 L 1.46875 -12.59375 L 6.515625 -12.59375 Z M 2.140625 -11.96875 L 2.140625 3.578125 L 5.875 3.578125 L 5.875 -11.96875 Z M 3.890625 -5.40625 C 4.367188 -5.40625 4.707031 -5.273438 4.90625 -5.015625 C 5.113281 -4.765625 5.21875 -4.4375 5.21875 -4.03125 C 5.21875 -3.601562 5.128906 -3.273438 4.953125 -3.046875 C 4.773438 -2.816406 4.484375 -2.671875 4.078125 -2.609375 L 4.078125 -2.078125 C 4.078125 -1.984375 4.046875 -1.910156 3.984375 -1.859375 C 3.929688 -1.804688 3.863281 -1.78125 3.78125 -1.78125 C 3.695312 -1.78125 3.625 -1.804688 3.5625 -1.859375 C 3.507812 -1.910156 3.484375 -1.984375 3.484375 -2.078125 L 3.484375 -3.078125 C 3.898438 -3.109375 4.1875 -3.1875 4.34375 -3.3125 C 4.5 -3.445312 4.578125 -3.679688 4.578125 -4.015625 C 4.578125 -4.273438 4.523438 -4.476562 4.421875 -4.625 C 4.316406 -4.769531 4.125 -4.84375 3.84375 -4.84375 C 3.601562 -4.84375 3.394531 -4.796875 3.21875 -4.703125 C 3.15625 -4.679688 3.101562 -4.671875 3.0625 -4.671875 C 2.96875 -4.671875 2.894531 -4.695312 2.84375 -4.75 C 2.789062 -4.800781 2.765625 -4.863281 2.765625 -4.9375 C 2.765625 -5.09375 2.882812 -5.207031 3.125 -5.28125 C 3.363281 -5.363281 3.617188 -5.40625 3.890625 -5.40625 Z M 3.78125 -1.4375 C 3.894531 -1.4375 3.992188 -1.394531 4.078125 -1.3125 C 4.160156 -1.238281 4.203125 -1.140625 4.203125 -1.015625 C 4.203125 -0.890625 4.160156 -0.785156 4.078125 -0.703125 C 3.992188 -0.617188 3.894531 -0.578125 3.78125 -0.578125 C 3.65625 -0.578125 3.550781 -0.617188 3.46875 -0.703125 C 3.394531 -0.785156 3.359375 -0.890625 3.359375 -1.015625 C 3.359375 -1.140625 3.394531 -1.238281 3.46875 -1.3125 C 3.550781 -1.394531 3.65625 -1.4375 3.78125 -1.4375 Z M 3.78125 -1.4375 "/>
</g>
<g id="glyph-0-1">
<path d="M 6.296875 -2.40625 C 6.296875 -1.78125 6.097656 -1.253906 5.703125 -0.828125 C 5.316406 -0.398438 4.773438 -0.113281 4.078125 0.03125 L 4.078125 1.9375 L 2.71875 1.9375 L 2.71875 0.109375 C 1.65625 0.015625 0.785156 -0.359375 0.109375 -1.015625 L 1.078125 -2.078125 C 1.648438 -1.535156 2.316406 -1.265625 3.078125 -1.265625 C 3.460938 -1.265625 3.765625 -1.351562 3.984375 -1.53125 C 4.210938 -1.707031 4.328125 -1.945312 4.328125 -2.25 C 4.328125 -2.457031 4.285156 -2.625 4.203125 -2.75 C 4.128906 -2.882812 3.988281 -3.003906 3.78125 -3.109375 C 3.570312 -3.222656 3.269531 -3.335938 2.875 -3.453125 C 2 -3.734375 1.375 -4.066406 1 -4.453125 C 0.625 -4.835938 0.4375 -5.328125 0.4375 -5.921875 C 0.4375 -6.523438 0.644531 -7.03125 1.0625 -7.4375 C 1.476562 -7.84375 2.03125 -8.097656 2.71875 -8.203125 L 2.71875 -9.953125 L 4.078125 -9.953125 L 4.078125 -8.1875 C 4.859375 -8.050781 5.523438 -7.726562 6.078125 -7.21875 L 5.203125 -6.1875 C 4.671875 -6.632812 4.085938 -6.859375 3.453125 -6.859375 C 3.117188 -6.859375 2.851562 -6.785156 2.65625 -6.640625 C 2.46875 -6.503906 2.375 -6.316406 2.375 -6.078125 C 2.375 -5.898438 2.414062 -5.753906 2.5 -5.640625 C 2.582031 -5.523438 2.734375 -5.414062 2.953125 -5.3125 C 3.171875 -5.21875 3.492188 -5.101562 3.921875 -4.96875 C 4.734375 -4.707031 5.332031 -4.382812 5.71875 -4 C 6.101562 -3.625 6.296875 -3.09375 6.296875 -2.40625 Z M 6.296875 -2.40625 "/>
</g>
<g id="glyph-0-2">
<path d="M 3.515625 -8.28125 C 4.503906 -8.28125 5.257812 -7.914062 5.78125 -7.1875 C 6.3125 -6.457031 6.578125 -5.410156 6.578125 -4.046875 C 6.578125 -2.679688 6.3125 -1.628906 5.78125 -0.890625 C 5.257812 -0.160156 4.503906 0.203125 3.515625 0.203125 C 2.523438 0.203125 1.765625 -0.160156 1.234375 -0.890625 C 0.710938 -1.628906 0.453125 -2.679688 0.453125 -4.046875 C 0.453125 -5.410156 0.710938 -6.457031 1.234375 -7.1875 C 1.765625 -7.914062 2.523438 -8.28125 3.515625 -8.28125 Z M 3.515625 -6.875 C 3.242188 -6.875 3.023438 -6.785156 2.859375 -6.609375 C 2.703125 -6.429688 2.585938 -6.140625 2.515625 -5.734375 C 2.441406 -5.328125 2.40625 -4.765625 2.40625 -4.046875 C 2.40625 -3.328125 2.441406 -2.757812 2.515625 -2.34375 C 2.585938 -1.9375 2.703125 -1.644531 2.859375 -1.46875 C 3.023438 -1.289062 3.242188 -1.203125 3.515625 -1.203125 C 3.785156 -1.203125 4 -1.285156 4.15625 -1.453125 C 4.320312 -1.628906 4.441406 -1.921875 4.515625 -2.328125 C 4.585938 -2.742188 4.625 -3.316406 4.625 -4.046875 C 4.625 -4.773438 4.585938 -5.34375 4.515625 -5.75 C 4.441406 -6.164062 4.320312 -6.457031 4.15625 -6.625 C 4 -6.789062 3.785156 -6.875 3.515625 -6.875 Z M 3.515625 -6.875 "/>
</g>
<g id="glyph-0-3">
<path d="M 2.859375 -8.28125 C 3.441406 -8.28125 3.941406 -8.175781 4.359375 -7.96875 C 4.773438 -7.757812 5.09375 -7.476562 5.3125 -7.125 C 5.539062 -6.769531 5.65625 -6.382812 5.65625 -5.96875 C 5.65625 -5.53125 5.566406 -5.113281 5.390625 -4.71875 C 5.210938 -4.332031 4.898438 -3.882812 4.453125 -3.375 C 4.003906 -2.863281 3.351562 -2.222656 2.5 -1.453125 L 5.8125 -1.453125 L 5.625 0 L 0.34375 0 L 0.34375 -1.34375 C 1.332031 -2.3125 2.050781 -3.039062 2.5 -3.53125 C 2.945312 -4.019531 3.257812 -4.425781 3.4375 -4.75 C 3.613281 -5.082031 3.703125 -5.421875 3.703125 -5.765625 C 3.703125 -6.097656 3.609375 -6.359375 3.421875 -6.546875 C 3.234375 -6.734375 2.976562 -6.828125 2.65625 -6.828125 C 2.375 -6.828125 2.117188 -6.757812 1.890625 -6.625 C 1.671875 -6.5 1.441406 -6.285156 1.203125 -5.984375 L 0.078125 -6.875 C 0.410156 -7.3125 0.8125 -7.65625 1.28125 -7.90625 C 1.75 -8.15625 2.273438 -8.28125 2.859375 -8.28125 Z M 2.859375 -8.28125 "/>
</g>
<g id="glyph-0-4">
<path d="M 6.53125 -1.75 L 5.609375 -1.75 L 5.609375 0 L 3.765625 0 L 3.75 -1.75 L 0.34375 -1.75 L 0.34375 -3.015625 L 2.640625 -8.3125 L 4.25 -7.71875 L 2.296875 -3.171875 L 3.78125 -3.171875 L 3.984375 -5.09375 L 5.609375 -5.09375 L 5.609375 -3.171875 L 6.53125 -3.171875 Z M 6.53125 -1.75 "/>
</g>
<g id="glyph-0-5">
<path d="M 4.140625 -5.453125 C 4.585938 -5.453125 4.988281 -5.347656 5.34375 -5.140625 C 5.695312 -4.929688 5.972656 -4.625 6.171875 -4.21875 C 6.367188 -3.8125 6.46875 -3.328125 6.46875 -2.765625 C 6.46875 -2.210938 6.347656 -1.710938 6.109375 -1.265625 C 5.867188 -0.816406 5.523438 -0.457031 5.078125 -0.1875 C 4.640625 0.0703125 4.125 0.203125 3.53125 0.203125 C 2.488281 0.203125 1.710938 -0.144531 1.203125 -0.84375 C 0.703125 -1.539062 0.453125 -2.492188 0.453125 -3.703125 C 0.453125 -4.617188 0.59375 -5.421875 0.875 -6.109375 C 1.164062 -6.796875 1.578125 -7.328125 2.109375 -7.703125 C 2.640625 -8.085938 3.265625 -8.28125 3.984375 -8.28125 C 4.679688 -8.28125 5.296875 -8.097656 5.828125 -7.734375 L 5.140625 -6.609375 C 4.773438 -6.816406 4.40625 -6.921875 4.03125 -6.921875 C 3.570312 -6.921875 3.203125 -6.726562 2.921875 -6.34375 C 2.648438 -5.957031 2.484375 -5.410156 2.421875 -4.703125 C 2.898438 -5.203125 3.472656 -5.453125 4.140625 -5.453125 Z M 3.546875 -1.15625 C 3.890625 -1.15625 4.144531 -1.296875 4.3125 -1.578125 C 4.488281 -1.859375 4.578125 -2.25 4.578125 -2.75 C 4.578125 -3.25 4.492188 -3.609375 4.328125 -3.828125 C 4.171875 -4.046875 3.929688 -4.15625 3.609375 -4.15625 C 3.179688 -4.15625 2.785156 -3.941406 2.421875 -3.515625 C 2.441406 -2.660156 2.535156 -2.050781 2.703125 -1.6875 C 2.867188 -1.332031 3.148438 -1.15625 3.546875 -1.15625 Z M 3.546875 -1.15625 "/>
</g>
<g id="glyph-0-6">
<path d="M 5 -4.359375 C 5.539062 -4.085938 5.941406 -3.773438 6.203125 -3.421875 C 6.472656 -3.066406 6.609375 -2.660156 6.609375 -2.203125 C 6.609375 -1.753906 6.484375 -1.347656 6.234375 -0.984375 C 5.984375 -0.617188 5.617188 -0.328125 5.140625 -0.109375 C 4.660156 0.0976562 4.09375 0.203125 3.4375 0.203125 C 2.8125 0.203125 2.265625 0.0976562 1.796875 -0.109375 C 1.328125 -0.328125 0.96875 -0.613281 0.71875 -0.96875 C 0.46875 -1.320312 0.34375 -1.71875 0.34375 -2.15625 C 0.34375 -3.0625 0.847656 -3.734375 1.859375 -4.171875 C 1.066406 -4.648438 0.671875 -5.289062 0.671875 -6.09375 C 0.671875 -6.53125 0.789062 -6.910156 1.03125 -7.234375 C 1.269531 -7.566406 1.601562 -7.820312 2.03125 -8 C 2.457031 -8.1875 2.941406 -8.28125 3.484375 -8.28125 C 4.316406 -8.28125 4.992188 -8.09375 5.515625 -7.71875 C 6.035156 -7.34375 6.296875 -6.832031 6.296875 -6.1875 C 6.296875 -5.832031 6.1875 -5.492188 5.96875 -5.171875 C 5.757812 -4.859375 5.4375 -4.585938 5 -4.359375 Z M 3.5 -7 C 3.195312 -7 2.957031 -6.914062 2.78125 -6.75 C 2.601562 -6.59375 2.515625 -6.367188 2.515625 -6.078125 C 2.515625 -5.796875 2.585938 -5.566406 2.734375 -5.390625 C 2.890625 -5.222656 3.140625 -5.070312 3.484375 -4.9375 L 3.75 -4.84375 C 4.019531 -5.019531 4.207031 -5.207031 4.3125 -5.40625 C 4.414062 -5.601562 4.46875 -5.832031 4.46875 -6.09375 C 4.46875 -6.363281 4.382812 -6.582031 4.21875 -6.75 C 4.050781 -6.914062 3.8125 -7 3.5 -7 Z M 3.5 -1.15625 C 3.882812 -1.15625 4.179688 -1.25 4.390625 -1.4375 C 4.609375 -1.632812 4.71875 -1.890625 4.71875 -2.203125 C 4.71875 -2.535156 4.625 -2.796875 4.4375 -2.984375 C 4.25 -3.171875 3.925781 -3.347656 3.46875 -3.515625 L 3.0625 -3.65625 C 2.519531 -3.34375 2.25 -2.875 2.25 -2.25 C 2.25 -1.914062 2.359375 -1.648438 2.578125 -1.453125 C 2.804688 -1.253906 3.113281 -1.15625 3.5 -1.15625 Z M 3.5 -1.15625 "/>
</g>
<g id="glyph-0-7">
<path d="M 4.578125 0 L 2.71875 0 L 2.71875 -6.265625 L 0.984375 -5.203125 L 0.15625 -6.453125 L 2.890625 -8.109375 L 4.578125 -8.109375 Z M 4.578125 0 "/>
</g>
<g id="glyph-1-0">
<path d="M 9.234375 5.953125 L 2.09375 5.953125 L 2.09375 -17.84375 L 9.234375 -17.84375 Z M 3.03125 -16.96875 L 3.03125 5.0625 L 8.3125 5.0625 L 8.3125 -16.96875 Z M 5.515625 -7.671875 C 6.191406 -7.671875 6.671875 -7.488281 6.953125 -7.125 C 7.242188 -6.757812 7.390625 -6.289062 7.390625 -5.71875 C 7.390625 -5.113281 7.257812 -4.644531 7 -4.3125 C 6.75 -3.988281 6.34375 -3.785156 5.78125 -3.703125 L 5.78125 -2.9375 C 5.78125 -2.8125 5.738281 -2.710938 5.65625 -2.640625 C 5.570312 -2.566406 5.472656 -2.53125 5.359375 -2.53125 C 5.242188 -2.53125 5.144531 -2.566406 5.0625 -2.640625 C 4.976562 -2.710938 4.9375 -2.8125 4.9375 -2.9375 L 4.9375 -4.375 C 5.53125 -4.40625 5.9375 -4.515625 6.15625 -4.703125 C 6.375 -4.890625 6.484375 -5.210938 6.484375 -5.671875 C 6.484375 -6.046875 6.40625 -6.332031 6.25 -6.53125 C 6.101562 -6.738281 5.832031 -6.84375 5.4375 -6.84375 C 5.113281 -6.84375 4.820312 -6.78125 4.5625 -6.65625 C 4.46875 -6.625 4.390625 -6.609375 4.328125 -6.609375 C 4.203125 -6.609375 4.101562 -6.644531 4.03125 -6.71875 C 3.957031 -6.789062 3.921875 -6.882812 3.921875 -7 C 3.921875 -7.21875 4.085938 -7.382812 4.421875 -7.5 C 4.765625 -7.613281 5.128906 -7.671875 5.515625 -7.671875 Z M 5.359375 -2.046875 C 5.523438 -2.046875 5.664062 -1.988281 5.78125 -1.875 C 5.894531 -1.757812 5.953125 -1.613281 5.953125 -1.4375 C 5.953125 -1.257812 5.894531 -1.109375 5.78125 -0.984375 C 5.664062 -0.867188 5.523438 -0.8125 5.359375 -0.8125 C 5.179688 -0.8125 5.035156 -0.867188 4.921875 -0.984375 C 4.816406 -1.109375 4.765625 -1.257812 4.765625 -1.4375 C 4.765625 -1.613281 4.816406 -1.757812 4.921875 -1.875 C 5.035156 -1.988281 5.179688 -2.046875 5.359375 -2.046875 Z M 5.359375 -2.046875 "/>
</g>
<g id="glyph-1-1">
<path d="M 7.421875 -5.046875 L 3.890625 -5.046875 L 3.890625 0 L 1.109375 0 L 1.109375 -11.78125 L 3.890625 -11.78125 L 3.890625 -7.21875 L 7.421875 -7.21875 L 7.421875 -11.78125 L 10.21875 -11.78125 L 10.21875 0 L 7.421875 0 Z M 7.421875 -5.046875 "/>
</g>
<g id="glyph-1-2">
<path d="M 4.96875 -9.3125 C 6.34375 -9.3125 7.421875 -8.890625 8.203125 -8.046875 C 8.992188 -7.203125 9.390625 -6.019531 9.390625 -4.5 C 9.390625 -3.539062 9.207031 -2.703125 8.84375 -1.984375 C 8.488281 -1.265625 7.976562 -0.707031 7.3125 -0.3125 C 6.65625 0.0820312 5.875 0.28125 4.96875 0.28125 C 3.59375 0.28125 2.507812 -0.140625 1.71875 -0.984375 C 0.9375 -1.828125 0.546875 -3.003906 0.546875 -4.515625 C 0.546875 -5.484375 0.722656 -6.328125 1.078125 -7.046875 C 1.429688 -7.765625 1.941406 -8.320312 2.609375 -8.71875 C 3.273438 -9.113281 4.0625 -9.3125 4.96875 -9.3125 Z M 4.96875 -7.34375 C 4.414062 -7.34375 4.003906 -7.113281 3.734375 -6.65625 C 3.460938 -6.195312 3.328125 -5.484375 3.328125 -4.515625 C 3.328125 -3.535156 3.457031 -2.816406 3.71875 -2.359375 C 3.988281 -1.910156 4.40625 -1.6875 4.96875 -1.6875 C 5.507812 -1.6875 5.914062 -1.914062 6.1875 -2.375 C 6.457031 -2.832031 6.59375 -3.539062 6.59375 -4.5 C 6.59375 -5.488281 6.457031 -6.207031 6.1875 -6.65625 C 5.925781 -7.113281 5.519531 -7.34375 4.96875 -7.34375 Z M 4.96875 -7.34375 "/>
</g>
<g id="glyph-1-3">
<path d="M 5.953125 -9.28125 C 6.273438 -9.28125 6.570312 -9.238281 6.84375 -9.15625 L 6.421875 -6.5625 C 6.085938 -6.644531 5.816406 -6.6875 5.609375 -6.6875 C 5.085938 -6.6875 4.6875 -6.503906 4.40625 -6.140625 C 4.125 -5.773438 3.898438 -5.226562 3.734375 -4.5 L 3.734375 0 L 1.046875 0 L 1.046875 -9.03125 L 3.40625 -9.03125 L 3.625 -7.296875 C 3.820312 -7.921875 4.128906 -8.40625 4.546875 -8.75 C 4.960938 -9.101562 5.429688 -9.28125 5.953125 -9.28125 Z M 5.953125 -9.28125 "/>
</g>
<g id="glyph-1-4">
<path d="M 8.234375 -2.625 C 8.234375 -2.28125 8.28125 -2.023438 8.375 -1.859375 C 8.46875 -1.703125 8.625 -1.585938 8.84375 -1.515625 L 8.28125 0.234375 C 7.726562 0.191406 7.273438 0.0742188 6.921875 -0.109375 C 6.578125 -0.304688 6.304688 -0.617188 6.109375 -1.046875 C 5.515625 -0.160156 4.609375 0.28125 3.390625 0.28125 C 2.492188 0.28125 1.773438 0.0195312 1.234375 -0.5 C 0.703125 -1.019531 0.4375 -1.695312 0.4375 -2.53125 C 0.4375 -3.519531 0.800781 -4.273438 1.53125 -4.796875 C 2.257812 -5.316406 3.304688 -5.578125 4.671875 -5.578125 L 5.59375 -5.578125 L 5.59375 -5.96875 C 5.59375 -6.5 5.476562 -6.863281 5.25 -7.0625 C 5.019531 -7.257812 4.625 -7.359375 4.0625 -7.359375 C 3.769531 -7.359375 3.410156 -7.316406 2.984375 -7.234375 C 2.566406 -7.148438 2.140625 -7.035156 1.703125 -6.890625 L 1.09375 -8.65625 C 1.65625 -8.863281 2.234375 -9.023438 2.828125 -9.140625 C 3.421875 -9.253906 3.972656 -9.3125 4.484375 -9.3125 C 5.773438 -9.3125 6.722656 -9.046875 7.328125 -8.515625 C 7.929688 -7.984375 8.234375 -7.1875 8.234375 -6.125 Z M 4.171875 -1.625 C 4.460938 -1.625 4.726562 -1.695312 4.96875 -1.84375 C 5.21875 -2 5.425781 -2.210938 5.59375 -2.484375 L 5.59375 -4.09375 L 4.9375 -4.09375 C 4.320312 -4.09375 3.863281 -3.984375 3.5625 -3.765625 C 3.257812 -3.554688 3.109375 -3.222656 3.109375 -2.765625 C 3.109375 -2.410156 3.203125 -2.128906 3.390625 -1.921875 C 3.578125 -1.722656 3.835938 -1.625 4.171875 -1.625 Z M 4.171875 -1.625 "/>
</g>
<g id="glyph-1-5">
<path d="M 4.234375 -9.3125 C 4.878906 -9.3125 5.484375 -9.210938 6.046875 -9.015625 C 6.617188 -8.828125 7.117188 -8.5625 7.546875 -8.21875 L 6.5625 -6.703125 C 5.820312 -7.160156 5.078125 -7.390625 4.328125 -7.390625 C 3.984375 -7.390625 3.71875 -7.328125 3.53125 -7.203125 C 3.34375 -7.085938 3.25 -6.925781 3.25 -6.71875 C 3.25 -6.539062 3.289062 -6.398438 3.375 -6.296875 C 3.457031 -6.191406 3.628906 -6.082031 3.890625 -5.96875 C 4.148438 -5.851562 4.550781 -5.71875 5.09375 -5.5625 C 6.039062 -5.289062 6.742188 -4.9375 7.203125 -4.5 C 7.660156 -4.0625 7.890625 -3.457031 7.890625 -2.6875 C 7.890625 -2.070312 7.710938 -1.539062 7.359375 -1.09375 C 7.003906 -0.644531 6.519531 -0.300781 5.90625 -0.0625 C 5.300781 0.164062 4.625 0.28125 3.875 0.28125 C 3.113281 0.28125 2.40625 0.164062 1.75 -0.0625 C 1.101562 -0.300781 0.554688 -0.628906 0.109375 -1.046875 L 1.40625 -2.515625 C 2.164062 -1.921875 2.96875 -1.625 3.8125 -1.625 C 4.21875 -1.625 4.535156 -1.695312 4.765625 -1.84375 C 4.992188 -2 5.109375 -2.210938 5.109375 -2.484375 C 5.109375 -2.703125 5.0625 -2.867188 4.96875 -2.984375 C 4.882812 -3.109375 4.710938 -3.222656 4.453125 -3.328125 C 4.191406 -3.441406 3.78125 -3.578125 3.21875 -3.734375 C 2.320312 -3.992188 1.648438 -4.359375 1.203125 -4.828125 C 0.765625 -5.296875 0.546875 -5.875 0.546875 -6.5625 C 0.546875 -7.082031 0.691406 -7.546875 0.984375 -7.953125 C 1.285156 -8.367188 1.71875 -8.695312 2.28125 -8.9375 C 2.84375 -9.1875 3.492188 -9.3125 4.234375 -9.3125 Z M 4.234375 -9.3125 "/>
</g>
<g id="glyph-1-6">
</g>
<g id="glyph-1-7">
<path d="M 9.140625 -12.609375 L 9.140625 0 L 6.765625 0 L 6.625 -1.046875 C 6.351562 -0.640625 6.003906 -0.316406 5.578125 -0.078125 C 5.148438 0.160156 4.644531 0.28125 4.0625 0.28125 C 2.9375 0.28125 2.082031 -0.144531 1.5 -1 C 0.914062 -1.863281 0.625 -3.039062 0.625 -4.53125 C 0.625 -5.46875 0.773438 -6.296875 1.078125 -7.015625 C 1.378906 -7.734375 1.8125 -8.296875 2.375 -8.703125 C 2.945312 -9.109375 3.613281 -9.3125 4.375 -9.3125 C 4.769531 -9.3125 5.144531 -9.238281 5.5 -9.09375 C 5.851562 -8.945312 6.171875 -8.738281 6.453125 -8.46875 L 6.453125 -12.90625 Z M 4.90625 -1.6875 C 5.507812 -1.6875 6.023438 -2.019531 6.453125 -2.6875 L 6.453125 -6.59375 C 6.242188 -6.84375 6.023438 -7.03125 5.796875 -7.15625 C 5.578125 -7.289062 5.332031 -7.359375 5.0625 -7.359375 C 4.550781 -7.359375 4.148438 -7.128906 3.859375 -6.671875 C 3.566406 -6.210938 3.421875 -5.492188 3.421875 -4.515625 C 3.421875 -3.460938 3.546875 -2.726562 3.796875 -2.3125 C 4.054688 -1.894531 4.425781 -1.6875 4.90625 -1.6875 Z M 4.90625 -1.6875 "/>
</g>
<g id="glyph-1-8">
<path d="M 8.921875 -4.6875 C 8.921875 -4.3125 8.90625 -3.988281 8.875 -3.71875 L 3.296875 -3.71875 C 3.378906 -2.957031 3.585938 -2.425781 3.921875 -2.125 C 4.265625 -1.820312 4.738281 -1.671875 5.34375 -1.671875 C 5.695312 -1.671875 6.046875 -1.734375 6.390625 -1.859375 C 6.734375 -1.992188 7.101562 -2.195312 7.5 -2.46875 L 8.609375 -0.96875 C 7.546875 -0.132812 6.367188 0.28125 5.078125 0.28125 C 3.617188 0.28125 2.5 -0.144531 1.71875 -1 C 0.9375 -1.863281 0.546875 -3.019531 0.546875 -4.46875 C 0.546875 -5.382812 0.707031 -6.207031 1.03125 -6.9375 C 1.363281 -7.675781 1.847656 -8.253906 2.484375 -8.671875 C 3.117188 -9.097656 3.878906 -9.3125 4.765625 -9.3125 C 6.066406 -9.3125 7.082031 -8.90625 7.8125 -8.09375 C 8.550781 -7.28125 8.921875 -6.144531 8.921875 -4.6875 Z M 6.296875 -5.453125 C 6.265625 -6.835938 5.773438 -7.53125 4.828125 -7.53125 C 4.359375 -7.53125 4 -7.363281 3.75 -7.03125 C 3.507812 -6.695312 3.351562 -6.132812 3.28125 -5.34375 L 6.296875 -5.34375 Z M 6.296875 -5.453125 "/>
</g>
<g id="glyph-1-9">
<path d="M 4.96875 -9.3125 C 5.59375 -9.3125 6.148438 -9.21875 6.640625 -9.03125 C 7.140625 -8.851562 7.613281 -8.582031 8.0625 -8.21875 L 6.90625 -6.609375 C 6.332031 -7.046875 5.757812 -7.265625 5.1875 -7.265625 C 4.582031 -7.265625 4.125 -7.039062 3.8125 -6.59375 C 3.507812 -6.15625 3.359375 -5.441406 3.359375 -4.453125 C 3.359375 -3.503906 3.507812 -2.832031 3.8125 -2.4375 C 4.125 -2.039062 4.570312 -1.84375 5.15625 -1.84375 C 5.457031 -1.84375 5.734375 -1.890625 5.984375 -1.984375 C 6.234375 -2.078125 6.535156 -2.234375 6.890625 -2.453125 L 8.0625 -0.78125 C 7.164062 -0.0703125 6.148438 0.28125 5.015625 0.28125 C 4.097656 0.28125 3.300781 0.0859375 2.625 -0.296875 C 1.957031 -0.691406 1.441406 -1.242188 1.078125 -1.953125 C 0.722656 -2.660156 0.546875 -3.488281 0.546875 -4.4375 C 0.546875 -5.382812 0.722656 -6.226562 1.078125 -6.96875 C 1.441406 -7.707031 1.957031 -8.28125 2.625 -8.6875 C 3.300781 -9.101562 4.082031 -9.3125 4.96875 -9.3125 Z M 4.96875 -9.3125 "/>
</g>
<g id="glyph-1-10">
<path d="M 3.734375 0 L 1.046875 0 L 1.046875 -9.03125 L 3.734375 -9.03125 Z M 2.375 -13.78125 C 2.84375 -13.78125 3.222656 -13.632812 3.515625 -13.34375 C 3.816406 -13.0625 3.96875 -12.695312 3.96875 -12.25 C 3.96875 -11.8125 3.816406 -11.445312 3.515625 -11.15625 C 3.222656 -10.875 2.84375 -10.734375 2.375 -10.734375 C 1.90625 -10.734375 1.523438 -10.875 1.234375 -11.15625 C 0.941406 -11.445312 0.796875 -11.8125 0.796875 -12.25 C 0.796875 -12.695312 0.941406 -13.0625 1.234375 -13.34375 C 1.523438 -13.632812 1.90625 -13.78125 2.375 -13.78125 Z M 2.375 -13.78125 "/>
</g>
<g id="glyph-1-11">
<path d="M 5.328125 -13.453125 C 4.515625 -12.296875 3.925781 -11.140625 3.5625 -9.984375 C 3.207031 -8.835938 3.03125 -7.492188 3.03125 -5.953125 C 3.03125 -4.410156 3.207031 -3.0625 3.5625 -1.90625 C 3.925781 -0.757812 4.515625 0.390625 5.328125 1.546875 L 3.609375 2.703125 C 2.867188 1.679688 2.273438 0.800781 1.828125 0.0625 C 1.390625 -0.675781 1.023438 -1.546875 0.734375 -2.546875 C 0.453125 -3.546875 0.3125 -4.679688 0.3125 -5.953125 C 0.3125 -7.222656 0.453125 -8.351562 0.734375 -9.34375 C 1.023438 -10.34375 1.390625 -11.210938 1.828125 -11.953125 C 2.273438 -12.703125 2.867188 -13.585938 3.609375 -14.609375 Z M 5.328125 -13.453125 "/>
</g>
<g id="glyph-1-12">
<path d="M 3.890625 -2.203125 L 8.484375 -2.203125 L 8.1875 0 L 1.109375 0 L 1.109375 -11.78125 L 3.890625 -11.78125 Z M 3.890625 -2.203125 "/>
</g>
<g id="glyph-1-13">
<path d="M 1.921875 -14.609375 C 2.660156 -13.578125 3.242188 -12.691406 3.671875 -11.953125 C 4.109375 -11.210938 4.472656 -10.34375 4.765625 -9.34375 C 5.054688 -8.351562 5.203125 -7.222656 5.203125 -5.953125 C 5.203125 -4.679688 5.054688 -3.546875 4.765625 -2.546875 C 4.472656 -1.546875 4.109375 -0.679688 3.671875 0.046875 C 3.242188 0.785156 2.660156 1.671875 1.921875 2.703125 L 0.203125 1.546875 C 1.003906 0.378906 1.585938 -0.773438 1.953125 -1.921875 C 2.316406 -3.078125 2.5 -4.421875 2.5 -5.953125 C 2.5 -7.484375 2.316406 -8.820312 1.953125 -9.96875 C 1.585938 -11.125 1.003906 -12.285156 0.203125 -13.453125 Z M 1.921875 -14.609375 "/>
</g>
<g id="glyph-2-0">
<path d="M 5.953125 -9.234375 L 5.953125 -2.09375 L -17.84375 -2.09375 L -17.84375 -9.234375 Z M -16.96875 -3.03125 L 5.0625 -3.03125 L 5.0625 -8.3125 L -16.96875 -8.3125 Z M -7.671875 -5.515625 C -7.671875 -6.191406 -7.488281 -6.671875 -7.125 -6.953125 C -6.757812 -7.242188 -6.289062 -7.390625 -5.71875 -7.390625 C -5.113281 -7.390625 -4.644531 -7.257812 -4.3125 -7 C -3.988281 -6.75 -3.785156 -6.34375 -3.703125 -5.78125 L -2.9375 -5.78125 C -2.8125 -5.78125 -2.710938 -5.738281 -2.640625 -5.65625 C -2.566406 -5.570312 -2.53125 -5.472656 -2.53125 -5.359375 C -2.53125 -5.242188 -2.566406 -5.144531 -2.640625 -5.0625 C -2.710938 -4.976562 -2.8125 -4.9375 -2.9375 -4.9375 L -4.375 -4.9375 C -4.40625 -5.53125 -4.515625 -5.9375 -4.703125 -6.15625 C -4.890625 -6.375 -5.210938 -6.484375 -5.671875 -6.484375 C -6.046875 -6.484375 -6.332031 -6.40625 -6.53125 -6.25 C -6.738281 -6.101562 -6.84375 -5.832031 -6.84375 -5.4375 C -6.84375 -5.113281 -6.78125 -4.820312 -6.65625 -4.5625 C -6.625 -4.46875 -6.609375 -4.390625 -6.609375 -4.328125 C -6.609375 -4.203125 -6.644531 -4.101562 -6.71875 -4.03125 C -6.789062 -3.957031 -6.882812 -3.921875 -7 -3.921875 C -7.21875 -3.921875 -7.382812 -4.085938 -7.5 -4.421875 C -7.613281 -4.765625 -7.671875 -5.128906 -7.671875 -5.515625 Z M -2.046875 -5.359375 C -2.046875 -5.523438 -1.988281 -5.664062 -1.875 -5.78125 C -1.757812 -5.894531 -1.613281 -5.953125 -1.4375 -5.953125 C -1.257812 -5.953125 -1.109375 -5.894531 -0.984375 -5.78125 C -0.867188 -5.664062 -0.8125 -5.523438 -0.8125 -5.359375 C -0.8125 -5.179688 -0.867188 -5.035156 -0.984375 -4.921875 C -1.109375 -4.816406 -1.257812 -4.765625 -1.4375 -4.765625 C -1.613281 -4.765625 -1.757812 -4.816406 -1.875 -4.921875 C -1.988281 -5.035156 -2.046875 -5.179688 -2.046875 -5.359375 Z M -2.046875 -5.359375 "/>
</g>
<g id="glyph-2-1">
<path d="M 0 -3.890625 L 0 -1.109375 L -11.78125 -1.109375 L -11.78125 -3.890625 Z M 0 -3.890625 "/>
</g>
<g id="glyph-2-2">
<path d="M -9.3125 -6.34375 C -9.3125 -7.125 -9.070312 -7.734375 -8.59375 -8.171875 C -8.125 -8.617188 -7.457031 -8.84375 -6.59375 -8.84375 L 0 -8.84375 L 0 -6.15625 L -6.140625 -6.15625 C -6.585938 -6.15625 -6.898438 -6.082031 -7.078125 -5.9375 C -7.253906 -5.800781 -7.34375 -5.585938 -7.34375 -5.296875 C -7.34375 -4.753906 -6.953125 -4.234375 -6.171875 -3.734375 L 0 -3.734375 L 0 -1.046875 L -9.03125 -1.046875 L -9.03125 -3.40625 L -7.953125 -3.59375 C -8.410156 -3.988281 -8.75 -4.410156 -8.96875 -4.859375 C -9.195312 -5.304688 -9.3125 -5.800781 -9.3125 -6.34375 Z M -9.3125 -6.34375 "/>
</g>
<g id="glyph-2-3">
<path d="M -8.5 -9.359375 C -8.257812 -8.773438 -8.140625 -7.910156 -8.140625 -6.765625 C -7.890625 -7.359375 -7.582031 -7.789062 -7.21875 -8.0625 C -6.863281 -8.332031 -6.394531 -8.46875 -5.8125 -8.46875 C -5.238281 -8.46875 -4.71875 -8.3125 -4.25 -8 C -3.789062 -7.695312 -3.429688 -7.257812 -3.171875 -6.6875 C -2.910156 -6.113281 -2.78125 -5.441406 -2.78125 -4.671875 C -2.78125 -4.304688 -2.816406 -3.960938 -2.890625 -3.640625 C -2.847656 -3.546875 -2.773438 -3.472656 -2.671875 -3.421875 C -2.578125 -3.367188 -2.476562 -3.34375 -2.375 -3.34375 C -2.207031 -3.34375 -2.078125 -3.40625 -1.984375 -3.53125 C -1.890625 -3.664062 -1.84375 -3.929688 -1.84375 -4.328125 L -1.84375 -5.6875 C -1.84375 -6.382812 -1.726562 -6.992188 -1.5 -7.515625 C -1.269531 -8.035156 -0.957031 -8.4375 -0.5625 -8.71875 C -0.164062 -9 0.28125 -9.140625 0.78125 -9.140625 C 1.71875 -9.140625 2.453125 -8.734375 2.984375 -7.921875 C 3.515625 -7.117188 3.78125 -5.953125 3.78125 -4.421875 C 3.78125 -3.316406 3.660156 -2.445312 3.421875 -1.8125 C 3.191406 -1.175781 2.863281 -0.734375 2.4375 -0.484375 C 2.019531 -0.234375 1.492188 -0.109375 0.859375 -0.109375 L 0.859375 -2.515625 C 1.140625 -2.515625 1.359375 -2.566406 1.515625 -2.671875 C 1.671875 -2.785156 1.785156 -2.984375 1.859375 -3.265625 C 1.941406 -3.546875 1.984375 -3.953125 1.984375 -4.484375 C 1.984375 -5.222656 1.894531 -5.734375 1.71875 -6.015625 C 1.550781 -6.296875 1.300781 -6.4375 0.96875 -6.4375 C 0.695312 -6.4375 0.476562 -6.328125 0.3125 -6.109375 C 0.15625 -5.898438 0.078125 -5.582031 0.078125 -5.15625 L 0.078125 -3.84375 C 0.078125 -2.914062 -0.0859375 -2.222656 -0.421875 -1.765625 C -0.753906 -1.304688 -1.179688 -1.078125 -1.703125 -1.078125 C -2.023438 -1.078125 -2.34375 -1.171875 -2.65625 -1.359375 C -2.96875 -1.554688 -3.226562 -1.816406 -3.4375 -2.140625 C -3.738281 -1.578125 -4.097656 -1.164062 -4.515625 -0.90625 C -4.929688 -0.65625 -5.429688 -0.53125 -6.015625 -0.53125 C -7.023438 -0.53125 -7.828125 -0.890625 -8.421875 -1.609375 C -9.015625 -2.335938 -9.3125 -3.296875 -9.3125 -4.484375 C -9.289062 -5.390625 -9.378906 -6.15625 -9.578125 -6.78125 C -9.785156 -7.414062 -10.085938 -8.066406 -10.484375 -8.734375 Z M -7.546875 -4.5625 C -7.546875 -4.132812 -7.410156 -3.800781 -7.140625 -3.5625 C -6.878906 -3.320312 -6.515625 -3.203125 -6.046875 -3.203125 C -5.566406 -3.203125 -5.191406 -3.320312 -4.921875 -3.5625 C -4.648438 -3.800781 -4.515625 -4.132812 -4.515625 -4.5625 C -4.515625 -5 -4.644531 -5.332031 -4.90625 -5.5625 C -5.164062 -5.800781 -5.5625 -5.921875 -6.09375 -5.921875 C -7.0625 -5.921875 -7.546875 -5.46875 -7.546875 -4.5625 Z M -7.546875 -4.5625 "/>
</g>
<g id="glyph-2-4">
<path d="M -9.28125 -5.953125 C -9.28125 -6.273438 -9.238281 -6.570312 -9.15625 -6.84375 L -6.5625 -6.421875 C -6.644531 -6.085938 -6.6875 -5.816406 -6.6875 -5.609375 C -6.6875 -5.085938 -6.503906 -4.6875 -6.140625 -4.40625 C -5.773438 -4.125 -5.226562 -3.898438 -4.5 -3.734375 L 0 -3.734375 L 0 -1.046875 L -9.03125 -1.046875 L -9.03125 -3.40625 L -7.296875 -3.625 C -7.921875 -3.820312 -8.40625 -4.128906 -8.75 -4.546875 C -9.101562 -4.960938 -9.28125 -5.429688 -9.28125 -5.953125 Z M -9.28125 -5.953125 "/>
</g>
<g id="glyph-2-5">
<path d="M -4.6875 -8.921875 C -4.3125 -8.921875 -3.988281 -8.90625 -3.71875 -8.875 L -3.71875 -3.296875 C -2.957031 -3.378906 -2.425781 -3.585938 -2.125 -3.921875 C -1.820312 -4.265625 -1.671875 -4.738281 -1.671875 -5.34375 C -1.671875 -5.695312 -1.734375 -6.046875 -1.859375 -6.390625 C -1.992188 -6.734375 -2.195312 -7.101562 -2.46875 -7.5 L -0.96875 -8.609375 C -0.132812 -7.546875 0.28125 -6.367188 0.28125 -5.078125 C 0.28125 -3.617188 -0.144531 -2.5 -1 -1.71875 C -1.863281 -0.9375 -3.019531 -0.546875 -4.46875 -0.546875 C -5.382812 -0.546875 -6.207031 -0.707031 -6.9375 -1.03125 C -7.675781 -1.363281 -8.253906 -1.847656 -8.671875 -2.484375 C -9.097656 -3.117188 -9.3125 -3.878906 -9.3125 -4.765625 C -9.3125 -6.066406 -8.90625 -7.082031 -8.09375 -7.8125 C -7.28125 -8.550781 -6.144531 -8.921875 -4.6875 -8.921875 Z M -5.453125 -6.296875 C -6.835938 -6.265625 -7.53125 -5.773438 -7.53125 -4.828125 C -7.53125 -4.359375 -7.363281 -4 -7.03125 -3.75 C -6.695312 -3.507812 -6.132812 -3.351562 -5.34375 -3.28125 L -5.34375 -6.296875 Z M -5.453125 -6.296875 "/>
</g>
<g id="glyph-2-6">
<path d="M -9.3125 -4.234375 C -9.3125 -4.878906 -9.210938 -5.484375 -9.015625 -6.046875 C -8.828125 -6.617188 -8.5625 -7.117188 -8.21875 -7.546875 L -6.703125 -6.5625 C -7.160156 -5.820312 -7.390625 -5.078125 -7.390625 -4.328125 C -7.390625 -3.984375 -7.328125 -3.71875 -7.203125 -3.53125 C -7.085938 -3.34375 -6.925781 -3.25 -6.71875 -3.25 C -6.539062 -3.25 -6.398438 -3.289062 -6.296875 -3.375 C -6.191406 -3.457031 -6.082031 -3.628906 -5.96875 -3.890625 C -5.851562 -4.148438 -5.71875 -4.550781 -5.5625 -5.09375 C -5.289062 -6.039062 -4.9375 -6.742188 -4.5 -7.203125 C -4.0625 -7.660156 -3.457031 -7.890625 -2.6875 -7.890625 C -2.070312 -7.890625 -1.539062 -7.710938 -1.09375 -7.359375 C -0.644531 -7.003906 -0.300781 -6.519531 -0.0625 -5.90625 C 0.164062 -5.300781 0.28125 -4.625 0.28125 -3.875 C 0.28125 -3.113281 0.164062 -2.40625 -0.0625 -1.75 C -0.300781 -1.101562 -0.628906 -0.554688 -1.046875 -0.109375 L -2.515625 -1.40625 C -1.921875 -2.164062 -1.625 -2.96875 -1.625 -3.8125 C -1.625 -4.21875 -1.695312 -4.535156 -1.84375 -4.765625 C -2 -4.992188 -2.210938 -5.109375 -2.484375 -5.109375 C -2.703125 -5.109375 -2.867188 -5.0625 -2.984375 -4.96875 C -3.109375 -4.882812 -3.222656 -4.710938 -3.328125 -4.453125 C -3.441406 -4.191406 -3.578125 -3.78125 -3.734375 -3.21875 C -3.992188 -2.320312 -4.359375 -1.648438 -4.828125 -1.203125 C -5.296875 -0.765625 -5.875 -0.546875 -6.5625 -0.546875 C -7.082031 -0.546875 -7.546875 -0.691406 -7.953125 -0.984375 C -8.367188 -1.285156 -8.695312 -1.71875 -8.9375 -2.28125 C -9.1875 -2.84375 -9.3125 -3.492188 -9.3125 -4.234375 Z M -9.3125 -4.234375 "/>
</g>
<g id="glyph-2-7">
<path d="M -9.3125 -4.96875 C -9.3125 -6.34375 -8.890625 -7.421875 -8.046875 -8.203125 C -7.203125 -8.992188 -6.019531 -9.390625 -4.5 -9.390625 C -3.539062 -9.390625 -2.703125 -9.207031 -1.984375 -8.84375 C -1.265625 -8.488281 -0.707031 -7.976562 -0.3125 -7.3125 C 0.0820312 -6.65625 0.28125 -5.875 0.28125 -4.96875 C 0.28125 -3.59375 -0.140625 -2.507812 -0.984375 -1.71875 C -1.828125 -0.9375 -3.003906 -0.546875 -4.515625 -0.546875 C -5.484375 -0.546875 -6.328125 -0.722656 -7.046875 -1.078125 C -7.765625 -1.429688 -8.320312 -1.941406 -8.71875 -2.609375 C -9.113281 -3.273438 -9.3125 -4.0625 -9.3125 -4.96875 Z M -7.34375 -4.96875 C -7.34375 -4.414062 -7.113281 -4.003906 -6.65625 -3.734375 C -6.195312 -3.460938 -5.484375 -3.328125 -4.515625 -3.328125 C -3.535156 -3.328125 -2.816406 -3.457031 -2.359375 -3.71875 C -1.910156 -3.988281 -1.6875 -4.40625 -1.6875 -4.96875 C -1.6875 -5.507812 -1.914062 -5.914062 -2.375 -6.1875 C -2.832031 -6.457031 -3.539062 -6.59375 -4.5 -6.59375 C -5.488281 -6.59375 -6.207031 -6.457031 -6.65625 -6.1875 C -7.113281 -5.925781 -7.34375 -5.519531 -7.34375 -4.96875 Z M -7.34375 -4.96875 "/>
</g>
<g id="glyph-2-8">
</g>
<g id="glyph-2-9">
<path d="M 0.28125 -3.453125 C 0.28125 -2.671875 0.0585938 -2.0625 -0.375 -1.625 C -0.820312 -1.1875 -1.460938 -0.96875 -2.296875 -0.96875 L -12.609375 -0.96875 L -12.90625 -3.65625 L -2.390625 -3.65625 C -2.023438 -3.65625 -1.84375 -3.804688 -1.84375 -4.109375 C -1.84375 -4.273438 -1.867188 -4.425781 -1.921875 -4.5625 L -0.015625 -5.078125 C 0.179688 -4.597656 0.28125 -4.054688 0.28125 -3.453125 Z M 0.28125 -3.453125 "/>
</g>
<g id="glyph-2-10">
<path d="M -2.625 -8.234375 C -2.28125 -8.234375 -2.023438 -8.28125 -1.859375 -8.375 C -1.703125 -8.46875 -1.585938 -8.625 -1.515625 -8.84375 L 0.234375 -8.28125 C 0.191406 -7.726562 0.0742188 -7.273438 -0.109375 -6.921875 C -0.304688 -6.578125 -0.617188 -6.304688 -1.046875 -6.109375 C -0.160156 -5.515625 0.28125 -4.609375 0.28125 -3.390625 C 0.28125 -2.492188 0.0195312 -1.773438 -0.5 -1.234375 C -1.019531 -0.703125 -1.695312 -0.4375 -2.53125 -0.4375 C -3.519531 -0.4375 -4.273438 -0.800781 -4.796875 -1.53125 C -5.316406 -2.257812 -5.578125 -3.304688 -5.578125 -4.671875 L -5.578125 -5.59375 L -5.96875 -5.59375 C -6.5 -5.59375 -6.863281 -5.476562 -7.0625 -5.25 C -7.257812 -5.019531 -7.359375 -4.625 -7.359375 -4.0625 C -7.359375 -3.769531 -7.316406 -3.410156 -7.234375 -2.984375 C -7.148438 -2.566406 -7.035156 -2.140625 -6.890625 -1.703125 L -8.65625 -1.09375 C -8.863281 -1.65625 -9.023438 -2.234375 -9.140625 -2.828125 C -9.253906 -3.421875 -9.3125 -3.972656 -9.3125 -4.484375 C -9.3125 -5.773438 -9.046875 -6.722656 -8.515625 -7.328125 C -7.984375 -7.929688 -7.1875 -8.234375 -6.125 -8.234375 Z M -1.625 -4.171875 C -1.625 -4.460938 -1.695312 -4.726562 -1.84375 -4.96875 C -2 -5.21875 -2.210938 -5.425781 -2.484375 -5.59375 L -4.09375 -5.59375 L -4.09375 -4.9375 C -4.09375 -4.320312 -3.984375 -3.863281 -3.765625 -3.5625 C -3.554688 -3.257812 -3.222656 -3.109375 -2.765625 -3.109375 C -2.410156 -3.109375 -2.128906 -3.203125 -1.921875 -3.390625 C -1.722656 -3.578125 -1.625 -3.835938 -1.625 -4.171875 Z M -1.625 -4.171875 "/>
</g>
<g id="glyph-2-11">
<path d="M -9.3125 -6.125 C -9.3125 -7.21875 -8.890625 -8.054688 -8.046875 -8.640625 C -7.210938 -9.222656 -6.03125 -9.515625 -4.5 -9.515625 C -3.570312 -9.515625 -2.742188 -9.367188 -2.015625 -9.078125 C -1.296875 -8.796875 -0.734375 -8.382812 -0.328125 -7.84375 C 0.0742188 -7.300781 0.28125 -6.664062 0.28125 -5.9375 C 0.28125 -5.4375 0.179688 -4.984375 -0.015625 -4.578125 C -0.210938 -4.179688 -0.492188 -3.84375 -0.859375 -3.5625 L 0 -3.4375 L 0 -1.046875 L -12.609375 -1.046875 L -12.90625 -3.734375 L -8.109375 -3.734375 C -8.472656 -3.992188 -8.765625 -4.335938 -8.984375 -4.765625 C -9.203125 -5.203125 -9.3125 -5.65625 -9.3125 -6.125 Z M -1.671875 -5.171875 C -1.671875 -6.210938 -2.613281 -6.734375 -4.5 -6.734375 C -5.570312 -6.734375 -6.3125 -6.609375 -6.71875 -6.359375 C -7.132812 -6.109375 -7.34375 -5.75 -7.34375 -5.28125 C -7.34375 -4.675781 -6.992188 -4.160156 -6.296875 -3.734375 L -2.546875 -3.734375 C -1.960938 -4.097656 -1.671875 -4.578125 -1.671875 -5.171875 Z M -1.671875 -5.171875 "/>
</g>
<g id="glyph-2-12">
<path d="M -13.453125 -5.328125 C -12.296875 -4.515625 -11.140625 -3.925781 -9.984375 -3.5625 C -8.835938 -3.207031 -7.492188 -3.03125 -5.953125 -3.03125 C -4.410156 -3.03125 -3.0625 -3.207031 -1.90625 -3.5625 C -0.757812 -3.925781 0.390625 -4.515625 1.546875 -5.328125 L 2.703125 -3.609375 C 1.679688 -2.867188 0.800781 -2.273438 0.0625 -1.828125 C -0.675781 -1.390625 -1.546875 -1.023438 -2.546875 -0.734375 C -3.546875 -0.453125 -4.679688 -0.3125 -5.953125 -0.3125 C -7.222656 -0.3125 -8.351562 -0.453125 -9.34375 -0.734375 C -10.34375 -1.023438 -11.210938 -1.390625 -11.953125 -1.828125 C -12.703125 -2.273438 -13.585938 -2.867188 -14.609375 -3.609375 Z M -13.453125 -5.328125 "/>
</g>
<g id="glyph-2-13">
<path d="M -4.421875 -6.4375 L 0 -6.4375 L 0 -3.65625 L -4.40625 -3.65625 L -11.78125 0.125 L -11.78125 -2.921875 L -6.59375 -5.09375 L -11.78125 -7.28125 L -11.78125 -10.21875 Z M -4.421875 -6.4375 "/>
</g>
<g id="glyph-2-14">
<path d="M -14.609375 -1.921875 C -13.578125 -2.660156 -12.691406 -3.242188 -11.953125 -3.671875 C -11.210938 -4.109375 -10.34375 -4.472656 -9.34375 -4.765625 C -8.351562 -5.054688 -7.222656 -5.203125 -5.953125 -5.203125 C -4.679688 -5.203125 -3.546875 -5.054688 -2.546875 -4.765625 C -1.546875 -4.472656 -0.679688 -4.109375 0.046875 -3.671875 C 0.785156 -3.242188 1.671875 -2.660156 2.703125 -1.921875 L 1.546875 -0.203125 C 0.378906 -1.003906 -0.773438 -1.585938 -1.921875 -1.953125 C -3.078125 -2.316406 -4.421875 -2.5 -5.953125 -2.5 C -7.484375 -2.5 -8.820312 -2.316406 -9.96875 -1.953125 C -11.125 -1.585938 -12.285156 -1.003906 -13.453125 -0.203125 Z M -14.609375 -1.921875 "/>
</g>
</g>
</defs>
<rect x="-39.6" y="-37.8" width="475.2" height="453.6" fill="rgb(100%, 100%, 100%)" fill-opacity="1"/>
<path fill="none" stroke-width="2.133957" stroke-linecap="butt" stroke-linejoin="round" stroke="rgb(90.196078%, 25.490196%, 45.098039%)" stroke-opacity="1" stroke-miterlimit="10" d="M 75.515625 257.398438 L 78.691406 274.269531 L 81.871094 281.847656 L 85.046875 286.5 L 88.222656 289.761719 L 91.398438 292.230469 L 94.574219 294.191406 L 97.753906 295.800781 L 100.929688 297.160156 L 104.105469 298.328125 L 107.28125 299.34375 L 110.457031 300.246094 L 113.632812 301.050781 L 116.8125 301.773438 L 119.988281 302.433594 L 123.164062 303.035156 L 126.339844 303.585938 L 129.515625 304.097656 L 132.695312 304.570312 L 135.871094 305.011719 L 139.046875 305.425781 L 142.222656 305.8125 L 145.398438 306.175781 L 148.578125 306.519531 L 151.753906 306.84375 L 154.929688 307.152344 L 158.105469 307.445312 L 161.28125 307.722656 L 164.457031 307.988281 L 167.636719 308.238281 L 170.8125 308.480469 L 173.988281 308.714844 L 177.164062 308.9375 L 180.339844 309.148438 L 183.519531 309.355469 L 186.695312 309.550781 L 189.871094 309.742188 L 193.046875 309.925781 L 196.222656 310.101562 L 199.402344 310.273438 L 202.578125 310.441406 L 205.753906 310.601562 L 212.105469 310.90625 L 215.28125 311.050781 L 218.460938 311.191406 L 221.636719 311.332031 L 224.8125 311.464844 L 231.164062 311.722656 L 234.34375 311.84375 L 237.519531 311.964844 L 240.695312 312.082031 L 243.871094 312.195312 L 250.222656 312.414062 L 253.402344 312.519531 L 256.578125 312.625 L 259.753906 312.726562 L 266.105469 312.921875 L 269.285156 313.015625 L 272.460938 313.109375 L 278.8125 313.289062 L 281.988281 313.375 L 285.167969 313.460938 L 294.695312 313.707031 L 301.046875 313.863281 L 304.226562 313.9375 L 313.753906 314.160156 L 316.929688 314.230469 L 320.109375 314.296875 L 323.285156 314.367188 L 332.8125 314.566406 L 335.992188 314.628906 L 345.519531 314.816406 L 351.871094 314.933594 L 355.050781 314.992188 L 358.226562 315.050781 L 367.753906 315.214844 L 370.933594 315.269531 L 374.109375 315.324219 L 377.285156 315.375 "/>
<path fill="none" stroke-width="2.133957" stroke-linecap="butt" stroke-linejoin="round" stroke="rgb(90.196078%, 25.490196%, 45.098039%)" stroke-opacity="1" stroke-miterlimit="10" d="M 75.515625 146.472656 L 78.691406 188.980469 L 81.871094 208.078125 L 85.046875 219.800781 L 88.222656 228.023438 L 91.398438 234.242188 L 94.574219 239.183594 L 97.753906 243.242188 L 100.929688 246.664062 L 104.105469 249.601562 L 107.28125 252.167969 L 110.457031 254.4375 L 113.632812 256.464844 L 116.8125 258.289062 L 119.988281 259.949219 L 123.164062 261.460938 L 126.339844 262.855469 L 129.515625 264.140625 L 132.695312 265.335938 L 135.871094 266.449219 L 139.046875 267.488281 L 142.222656 268.464844 L 145.398438 269.378906 L 148.578125 270.246094 L 151.753906 271.066406 L 154.929688 271.839844 L 158.105469 272.578125 L 161.28125 273.277344 L 164.457031 273.945312 L 167.636719 274.582031 L 170.8125 275.191406 L 173.988281 275.777344 L 177.164062 276.335938 L 180.339844 276.875 L 183.519531 277.390625 L 186.695312 277.890625 L 189.871094 278.367188 L 193.046875 278.832031 L 196.222656 279.277344 L 199.402344 279.710938 L 202.578125 280.125 L 205.753906 280.53125 L 208.929688 280.921875 L 212.105469 281.300781 L 215.28125 281.667969 L 218.460938 282.023438 L 221.636719 282.371094 L 224.8125 282.707031 L 227.988281 283.035156 L 231.164062 283.355469 L 234.34375 283.664062 L 237.519531 283.96875 L 240.695312 284.261719 L 243.871094 284.550781 L 247.046875 284.832031 L 250.222656 285.105469 L 253.402344 285.371094 L 256.578125 285.632812 L 259.753906 285.886719 L 262.929688 286.136719 L 266.105469 286.378906 L 269.285156 286.617188 L 272.460938 286.851562 L 275.636719 287.082031 L 278.8125 287.304688 L 281.988281 287.523438 L 285.167969 287.738281 L 288.34375 287.949219 L 291.519531 288.15625 L 294.695312 288.359375 L 297.871094 288.558594 L 301.046875 288.75 L 304.226562 288.941406 L 307.402344 289.132812 L 310.578125 289.316406 L 316.929688 289.675781 L 320.109375 289.851562 L 323.285156 290.023438 L 329.636719 290.359375 L 332.8125 290.523438 L 335.992188 290.683594 L 345.519531 291.152344 L 351.871094 291.449219 L 355.050781 291.597656 L 358.226562 291.742188 L 367.753906 292.164062 L 370.933594 292.300781 L 377.285156 292.566406 "/>
<path fill="none" stroke-width="2.133957" stroke-linecap="butt" stroke-linejoin="round" stroke="rgb(90.196078%, 25.490196%, 45.098039%)" stroke-opacity="1" stroke-miterlimit="10" d="M 75.515625 14.59375 L 78.691406 87.582031 L 81.871094 120.375 L 85.046875 140.503906 L 88.222656 154.625 L 91.398438 165.304688 L 94.574219 173.785156 L 97.753906 180.753906 L 100.929688 186.628906 L 104.105469 191.675781 L 107.28125 196.082031 L 110.457031 199.976562 L 113.632812 203.457031 L 116.8125 206.59375 L 119.988281 209.4375 L 123.164062 212.039062 L 126.339844 214.433594 L 129.515625 216.640625 L 132.695312 218.691406 L 135.871094 220.601562 L 139.046875 222.386719 L 142.222656 224.0625 L 145.398438 225.636719 L 148.578125 227.121094 L 151.753906 228.527344 L 154.929688 229.859375 L 158.105469 231.125 L 161.28125 232.328125 L 164.457031 233.472656 L 167.636719 234.570312 L 170.8125 235.617188 L 173.988281 236.621094 L 177.164062 237.582031 L 180.339844 238.503906 L 183.519531 239.390625 L 186.695312 240.246094 L 189.871094 241.070312 L 193.046875 241.863281 L 196.222656 242.628906 L 199.402344 243.371094 L 202.578125 244.085938 L 205.753906 244.78125 L 208.929688 245.453125 L 212.105469 246.101562 L 215.28125 246.734375 L 218.460938 247.347656 L 221.636719 247.941406 L 224.8125 248.519531 L 227.988281 249.082031 L 231.164062 249.632812 L 234.34375 250.164062 L 237.519531 250.683594 L 240.695312 251.1875 L 243.871094 251.683594 L 247.046875 252.164062 L 250.222656 252.632812 L 253.402344 253.09375 L 256.578125 253.539062 L 259.753906 253.980469 L 262.929688 254.40625 L 266.105469 254.824219 L 269.285156 255.234375 L 272.460938 255.636719 L 275.636719 256.027344 L 278.8125 256.414062 L 281.988281 256.789062 L 285.167969 257.15625 L 288.34375 257.519531 L 291.519531 257.875 L 294.695312 258.222656 L 297.871094 258.5625 L 301.046875 258.898438 L 304.226562 259.226562 L 307.402344 259.550781 L 310.578125 259.867188 L 316.929688 260.484375 L 320.109375 260.785156 L 326.460938 261.371094 L 329.636719 261.65625 L 332.8125 261.9375 L 335.992188 262.214844 L 342.34375 262.753906 L 348.695312 263.277344 L 351.871094 263.53125 L 355.050781 263.785156 L 361.402344 264.277344 L 367.753906 264.753906 L 370.933594 264.988281 L 374.109375 265.21875 L 377.285156 265.445312 "/>
<path fill="none" stroke-width="2.133957" stroke-linecap="butt" stroke-linejoin="round" stroke="rgb(90.196078%, 25.490196%, 45.098039%)" stroke-opacity="1" stroke-miterlimit="10" d="M 81.871094 22.191406 L 85.046875 51.730469 L 88.222656 72.453125 L 91.398438 88.125 L 94.574219 100.570312 L 97.753906 110.796875 L 100.929688 119.417969 L 104.105469 126.828125 L 107.28125 133.292969 L 110.457031 139.007812 L 113.632812 144.113281 L 116.8125 148.714844 L 119.988281 152.894531 L 123.164062 156.710938 L 126.339844 160.222656 L 129.515625 163.464844 L 132.695312 166.472656 L 135.871094 169.273438 L 139.046875 171.894531 L 142.222656 174.351562 L 145.398438 176.664062 L 148.578125 178.84375 L 151.753906 180.90625 L 154.929688 182.859375 L 158.105469 184.71875 L 161.28125 186.484375 L 164.457031 188.164062 L 167.636719 189.773438 L 170.8125 191.308594 L 173.988281 192.78125 L 177.164062 194.191406 L 180.339844 195.546875 L 183.519531 196.851562 L 186.695312 198.105469 L 189.871094 199.3125 L 193.046875 200.476562 L 196.222656 201.601562 L 199.402344 202.691406 L 202.578125 203.742188 L 205.753906 204.757812 L 208.929688 205.742188 L 212.105469 206.699219 L 215.28125 207.625 L 218.460938 208.523438 L 221.636719 209.398438 L 224.8125 210.246094 L 227.988281 211.074219 L 231.164062 211.875 L 234.34375 212.660156 L 237.519531 213.421875 L 240.695312 214.164062 L 243.871094 214.886719 L 247.046875 215.59375 L 250.222656 216.285156 L 253.402344 216.957031 L 256.578125 217.613281 L 259.753906 218.257812 L 262.929688 218.886719 L 266.105469 219.5 L 269.285156 220.101562 L 272.460938 220.6875 L 275.636719 221.265625 L 278.8125 221.828125 L 281.988281 222.378906 L 285.167969 222.921875 L 288.34375 223.453125 L 291.519531 223.972656 L 294.695312 224.484375 L 297.871094 224.984375 L 301.046875 225.476562 L 304.226562 225.957031 L 307.402344 226.429688 L 310.578125 226.898438 L 313.753906 227.355469 L 316.929688 227.800781 L 320.109375 228.242188 L 323.285156 228.675781 L 326.460938 229.105469 L 329.636719 229.523438 L 332.8125 229.9375 L 335.992188 230.339844 L 339.167969 230.742188 L 342.34375 231.132812 L 345.519531 231.519531 L 348.695312 231.902344 L 351.871094 232.277344 L 355.050781 232.648438 L 358.226562 233.011719 L 361.402344 233.371094 L 364.578125 233.722656 L 367.753906 234.070312 L 370.933594 234.414062 L 374.109375 234.753906 L 377.285156 235.085938 "/>
<path fill="none" stroke-width="2.133957" stroke-linecap="butt" stroke-linejoin="round" stroke="rgb(90.196078%, 25.490196%, 45.098039%)" stroke-opacity="1" stroke-miterlimit="10" d="M 94.574219 20.933594 L 97.753906 34.707031 L 100.929688 46.3125 L 104.105469 56.289062 L 107.28125 64.996094 L 110.457031 72.691406 L 113.632812 79.566406 L 116.8125 85.765625 L 119.988281 91.390625 L 123.164062 96.53125 L 126.339844 101.257812 L 129.515625 105.621094 L 132.695312 109.671875 L 135.871094 113.445312 L 139.046875 116.972656 L 142.222656 120.285156 L 145.398438 123.394531 L 148.578125 126.332031 L 151.753906 129.109375 L 154.929688 131.742188 L 158.105469 134.238281 L 161.28125 136.617188 L 164.457031 138.882812 L 167.636719 141.046875 L 170.8125 143.117188 L 173.988281 145.097656 L 177.164062 147 L 180.339844 148.824219 L 183.519531 150.578125 L 186.695312 152.265625 L 189.871094 153.894531 L 193.046875 155.464844 L 196.222656 156.976562 L 199.402344 158.441406 L 202.578125 159.855469 L 205.753906 161.226562 L 208.929688 162.550781 L 212.105469 163.839844 L 215.28125 165.085938 L 218.460938 166.296875 L 221.636719 167.472656 L 224.8125 168.617188 L 227.988281 169.730469 L 231.164062 170.8125 L 234.34375 171.863281 L 237.519531 172.890625 L 240.695312 173.890625 L 243.871094 174.863281 L 247.046875 175.816406 L 250.222656 176.746094 L 253.402344 177.652344 L 256.578125 178.535156 L 259.753906 179.402344 L 262.929688 180.246094 L 266.105469 181.074219 L 269.285156 181.882812 L 272.460938 182.675781 L 275.636719 183.453125 L 278.8125 184.210938 L 281.988281 184.953125 L 285.167969 185.683594 L 288.34375 186.398438 L 291.519531 187.097656 L 294.695312 187.785156 L 297.871094 188.460938 L 301.046875 189.121094 L 304.226562 189.773438 L 307.402344 190.410156 L 310.578125 191.035156 L 313.753906 191.652344 L 316.929688 192.253906 L 320.109375 192.851562 L 323.285156 193.433594 L 326.460938 194.007812 L 329.636719 194.574219 L 332.8125 195.128906 L 335.992188 195.675781 L 339.167969 196.210938 L 342.34375 196.742188 L 345.519531 197.261719 L 348.695312 197.777344 L 351.871094 198.28125 L 355.050781 198.777344 L 358.226562 199.269531 L 361.402344 199.75 L 364.578125 200.226562 L 367.753906 200.695312 L 370.933594 201.160156 L 374.109375 201.613281 L 377.285156 202.0625 "/>
<path fill="none" stroke-width="1.066978" stroke-linecap="butt" stroke-linejoin="round" stroke="rgb(15.294118%, 15.686275%, 13.333333%)" stroke-opacity="1" stroke-miterlimit="10" d="M 59.632812 332.367188 L 59.632812 5.480469 "/>
<g fill="rgb(30.196078%, 30.196078%, 30.196078%)" fill-opacity="1">
<use xlink:href="#glyph-0-1" x="43.441406" y="336.086914"/>
<use xlink:href="#glyph-0-2" x="50.441406" y="336.086914"/>
</g>
<g fill="rgb(30.196078%, 30.196078%, 30.196078%)" fill-opacity="1">
<use xlink:href="#glyph-0-1" x="37.441406" y="296.461914"/>
<use xlink:href="#glyph-0-3" x="44.441406" y="296.461914"/>
<use xlink:href="#glyph-0-2" x="50.441406" y="296.461914"/>
</g>
<g fill="rgb(30.196078%, 30.196078%, 30.196078%)" fill-opacity="1">
<use xlink:href="#glyph-0-1" x="36.441406" y="256.84082"/>
<use xlink:href="#glyph-0-4" x="43.441406" y="256.84082"/>
<use xlink:href="#glyph-0-2" x="50.441406" y="256.84082"/>
</g>
<g fill="rgb(30.196078%, 30.196078%, 30.196078%)" fill-opacity="1">
<use xlink:href="#glyph-0-1" x="36.441406" y="217.219727"/>
<use xlink:href="#glyph-0-5" x="43.441406" y="217.219727"/>
<use xlink:href="#glyph-0-2" x="50.441406" y="217.219727"/>
</g>
<g fill="rgb(30.196078%, 30.196078%, 30.196078%)" fill-opacity="1">
<use xlink:href="#glyph-0-1" x="36.441406" y="177.594727"/>
<use xlink:href="#glyph-0-6" x="43.441406" y="177.594727"/>
<use xlink:href="#glyph-0-2" x="50.441406" y="177.594727"/>
</g>
<g fill="rgb(30.196078%, 30.196078%, 30.196078%)" fill-opacity="1">
<use xlink:href="#glyph-0-1" x="31.441406" y="137.973633"/>
<use xlink:href="#glyph-0-7" x="37.441406" y="137.973633"/>
<use xlink:href="#glyph-0-2" x="43.441406" y="137.973633"/>
<use xlink:href="#glyph-0-2" x="50.441406" y="137.973633"/>
</g>
<g fill="rgb(30.196078%, 30.196078%, 30.196078%)" fill-opacity="1">
<use xlink:href="#glyph-0-1" x="32.441406" y="98.348633"/>
<use xlink:href="#glyph-0-7" x="38.441406" y="98.348633"/>
<use xlink:href="#glyph-0-3" x="44.441406" y="98.348633"/>
<use xlink:href="#glyph-0-2" x="50.441406" y="98.348633"/>
</g>
<g fill="rgb(30.196078%, 30.196078%, 30.196078%)" fill-opacity="1">
<use xlink:href="#glyph-0-1" x="31.441406" y="58.727539"/>
<use xlink:href="#glyph-0-7" x="37.441406" y="58.727539"/>
<use xlink:href="#glyph-0-4" x="43.441406" y="58.727539"/>
<use xlink:href="#glyph-0-2" x="50.441406" y="58.727539"/>
</g>
<g fill="rgb(30.196078%, 30.196078%, 30.196078%)" fill-opacity="1">
<use xlink:href="#glyph-0-1" x="31.441406" y="19.106445"/>
<use xlink:href="#glyph-0-7" x="37.441406" y="19.106445"/>
<use xlink:href="#glyph-0-5" x="43.441406" y="19.106445"/>
<use xlink:href="#glyph-0-2" x="50.441406" y="19.106445"/>
</g>
<path fill="none" stroke-width="1.066978" stroke-linecap="butt" stroke-linejoin="round" stroke="rgb(15.294118%, 15.686275%, 13.333333%)" stroke-opacity="1" stroke-miterlimit="10" d="M 59.632812 332.367188 L 390.519531 332.367188 "/>
<g fill="rgb(30.196078%, 30.196078%, 30.196078%)" fill-opacity="1">
<use xlink:href="#glyph-0-2" x="56.132812" y="342.77832"/>
</g>
<g fill="rgb(30.196078%, 30.196078%, 30.196078%)" fill-opacity="1">
<use xlink:href="#glyph-0-4" x="109.074219" y="342.77832"/>
</g>
<g fill="rgb(30.196078%, 30.196078%, 30.196078%)" fill-opacity="1">
<use xlink:href="#glyph-0-6" x="162.019531" y="342.77832"/>
</g>
<g fill="rgb(30.196078%, 30.196078%, 30.196078%)" fill-opacity="1">
<use xlink:href="#glyph-0-7" x="212.460938" y="342.77832"/>
<use xlink:href="#glyph-0-3" x="218.460938" y="342.77832"/>
</g>
<g fill="rgb(30.196078%, 30.196078%, 30.196078%)" fill-opacity="1">
<use xlink:href="#glyph-0-7" x="264.902344" y="342.77832"/>
<use xlink:href="#glyph-0-5" x="270.902344" y="342.77832"/>
</g>
<g fill="rgb(30.196078%, 30.196078%, 30.196078%)" fill-opacity="1">
<use xlink:href="#glyph-0-3" x="317.84375" y="342.77832"/>
<use xlink:href="#glyph-0-2" x="323.84375" y="342.77832"/>
</g>
<g fill="rgb(30.196078%, 30.196078%, 30.196078%)" fill-opacity="1">
<use xlink:href="#glyph-0-3" x="370.785156" y="342.77832"/>
<use xlink:href="#glyph-0-4" x="376.785156" y="342.77832"/>
</g>
<g fill="rgb(15.294118%, 15.686275%, 13.333333%)" fill-opacity="1">
<use xlink:href="#glyph-1-1" x="160.578125" y="368.414062"/>
<use xlink:href="#glyph-1-2" x="171.578125" y="368.414062"/>
<use xlink:href="#glyph-1-3" x="181.578125" y="368.414062"/>
<use xlink:href="#glyph-1-4" x="187.578125" y="368.414062"/>
<use xlink:href="#glyph-1-5" x="196.578125" y="368.414062"/>
<use xlink:href="#glyph-1-6" x="204.578125" y="368.414062"/>
<use xlink:href="#glyph-1-7" x="208.578125" y="368.414062"/>
<use xlink:href="#glyph-1-8" x="218.578125" y="368.414062"/>
<use xlink:href="#glyph-1-6" x="227.578125" y="368.414062"/>
<use xlink:href="#glyph-1-2" x="231.578125" y="368.414062"/>
<use xlink:href="#glyph-1-9" x="241.578125" y="368.414062"/>
<use xlink:href="#glyph-1-10" x="249.578125" y="368.414062"/>
<use xlink:href="#glyph-1-2" x="254.578125" y="368.414062"/>
<use xlink:href="#glyph-1-6" x="264.578125" y="368.414062"/>
<use xlink:href="#glyph-1-11" x="268.578125" y="368.414062"/>
<use xlink:href="#glyph-1-12" x="274.578125" y="368.414062"/>
<use xlink:href="#glyph-1-13" x="283.578125" y="368.414062"/>
</g>
<g fill="rgb(15.294118%, 15.686275%, 13.333333%)" fill-opacity="1">
<use xlink:href="#glyph-2-1" x="17.375" y="239.921875"/>
<use xlink:href="#glyph-2-2" x="17.375" y="234.921875"/>
<use xlink:href="#glyph-2-3" x="17.375" y="224.921875"/>
<use xlink:href="#glyph-2-4" x="17.375" y="215.921875"/>
<use xlink:href="#glyph-2-5" x="17.375" y="208.921875"/>
<use xlink:href="#glyph-2-6" x="17.375" y="199.921875"/>
<use xlink:href="#glyph-2-7" x="17.375" y="191.921875"/>
<use xlink:href="#glyph-2-8" x="17.375" y="181.921875"/>
<use xlink:href="#glyph-2-9" x="17.375" y="177.921875"/>
<use xlink:href="#glyph-2-10" x="17.375" y="172.921875"/>
<use xlink:href="#glyph-2-11" x="17.375" y="163.921875"/>
<use xlink:href="#glyph-2-7" x="17.375" y="153.921875"/>
<use xlink:href="#glyph-2-4" x="17.375" y="143.921875"/>
<use xlink:href="#glyph-2-10" x="17.375" y="137.921875"/>
<use xlink:href="#glyph-2-9" x="17.375" y="128.921875"/>
<use xlink:href="#glyph-2-8" x="17.375" y="123.921875"/>
<use xlink:href="#glyph-2-12" x="17.375" y="119.921875"/>
<use xlink:href="#glyph-2-13" x="17.375" y="113.921875"/>
<use xlink:href="#glyph-2-14" x="17.375" y="103.921875"/>
</g>
</svg>
