<svg xmlns="http://www.w3.org/2000/svg" xmlns:xlink="http://www.w3.org/1999/xlink" x="0" y="0" width="662" height="302" style="
        width:662px;
        height:302px;
        background: transparent;
        fill: none;
">
        
        
        <svg xmlns="http://www.w3.org/2000/svg" class="role-diagram-draw-area"><g class="shapes-region" style="stroke: black; fill: none;"><g class="composite-shape"><path class="real" d=" M7.5,110.1 C7.5,104.25 12.25,99.5 18.1,99.5 L111.9,99.5 C117.75,99.5 122.5,104.25 122.5,110.1 L122.5,141.9 C122.5,147.75 117.75,152.5 111.9,152.5 L18.1,152.5 C12.25,152.5 7.5,147.75 7.5,141.9 Z" style="stroke-width: 1; stroke: rgb(0, 0, 0); fill: none; fill-opacity: 1;"/></g><g class="arrow-line"><path class="connection real" stroke-dasharray="" d="  M124,128 L156.5,127.53" style="stroke: rgb(0, 0, 0); stroke-width: 1; fill: none; fill-opacity: 1;"/><g stroke="#000" transform="matrix(-0.999895076364634,0.014485726138605043,-0.014485726138605043,-0.999895076364634,158.50000000000003,127.5)" style="stroke: rgb(0, 0, 0); stroke-width: 1;"><path d=" M10.93,-3.29 Q4.96,-0.45 0,0 Q4.96,0.45 10.93,3.29"/></g></g><g class="composite-shape"><path class="real" d=" M163,107.5 L286.5,107.5 L286.5,148.5 L163,148.5 Z" style="stroke-width: 1; stroke: rgb(0, 0, 0); fill: none; fill-opacity: 1;"/></g><g class="arrow-line"><path class="connection real" stroke-dasharray="" d="  M293,128 L325.5,127.53" style="stroke: rgb(0, 0, 0); stroke-width: 1; fill: none; fill-opacity: 1;"/><g stroke="#000" transform="matrix(-0.999895076364634,0.014485726138605043,-0.014485726138605043,-0.999895076364634,327.50000000000006,127.50000000000001)" style="stroke: rgb(0, 0, 0); stroke-width: 1;"><path d=" M10.93,-3.29 Q4.96,-0.45 0,0 Q4.96,0.45 10.93,3.29"/></g></g><g class="composite-shape"><path class="real" d=" M333.5,114.9 C333.5,109.16 338.16,104.5 343.9,104.5 L432.1,104.5 C437.84,104.5 442.5,109.16 442.5,114.9 L442.5,146.1 C442.5,151.84 437.84,156.5 432.1,156.5 L343.9,156.5 C338.16,156.5 333.5,151.84 333.5,146.1 Z" style="stroke-width: 1; stroke: rgb(0, 0, 0); fill: rgb(80, 227, 194); fill-opacity: 1;"/></g><g class="arrow-line"><path class="connection real" stroke-dasharray="" d="  M364,95 C400.14,28.17 396.58,81.41 454.72,71.81" style="stroke: rgb(0, 0, 0); stroke-width: 1; fill: none; fill-opacity: 1;"/><g stroke="#000" transform="matrix(-0.9836029623670508,0.18034747689602457,-0.18034747689602457,-0.9836029623670508,456.5,71.5)" style="stroke: rgb(0, 0, 0); stroke-width: 1;"><path d=" M10.93,-3.29 Q4.96,-0.45 0,0 Q4.96,0.45 10.93,3.29"/></g></g><g class="composite-shape"><path class="real" d=" M461,55.3 C461,50.72 464.72,47 469.3,47 L545.2,47 C549.78,47 553.5,50.72 553.5,55.3 L553.5,80.2 C553.5,84.78 549.78,88.5 545.2,88.5 L469.3,88.5 C464.72,88.5 461,84.78 461,80.2 Z" style="stroke-width: 1; stroke: rgb(0, 0, 0); fill: none; fill-opacity: 1;"/></g><g class="composite-shape"><path class="real" d=" M462,117.3 C462,112.72 465.72,109 470.3,109 L546.2,109 C550.78,109 554.5,112.72 554.5,117.3 L554.5,142.2 C554.5,146.78 550.78,150.5 546.2,150.5 L470.3,150.5 C465.72,150.5 462,146.78 462,142.2 Z" style="stroke-width: 1; stroke: rgb(0, 0, 0); fill: none; fill-opacity: 1;"/></g><g class="composite-shape"><path class="real" d=" M464,172.3 C464,167.72 467.72,164 472.3,164 L548.2,164 C552.78,164 556.5,167.72 556.5,172.3 L556.5,197.2 C556.5,201.78 552.78,205.5 548.2,205.5 L472.3,205.5 C467.72,205.5 464,201.78 464,197.2 Z" style="stroke-width: 1; stroke: rgb(0, 0, 0); fill: none; fill-opacity: 1;"/></g><g class="arrow-line"><path class="connection real" stroke-dasharray="" d="  M365.5,171.5 C403.12,230.9 396.64,182.49 457.63,185.4" style="stroke: rgb(0, 0, 0); stroke-width: 1; fill: none; fill-opacity: 1;"/><g stroke="#000" transform="matrix(-0.9979937145832851,-0.06331307647126681,0.06331307647126681,-0.9979937145832851,459.5,185.50000000000003)" style="stroke: rgb(0, 0, 0); stroke-width: 1;"><path d=" M10.93,-3.29 Q4.96,-0.45 0,0 Q4.96,0.45 10.93,3.29"/></g></g><g class="composite-shape"><path class="real" d=" M562,128.25 C562,104.92 580.92,86 604.25,86 C627.58,86 646.5,104.92 646.5,128.25 C646.5,151.58 627.58,170.5 604.25,170.5 C580.92,170.5 562,151.58 562,128.25 Z" style="stroke-width: 1; stroke: rgb(0, 0, 0); fill: none; fill-opacity: 1;"/></g><g/></g><g/><g/><g/></svg>
        <svg xmlns="http://www.w3.org/2000/svg" xmlns:xlink="http://www.w3.org/1999/xlink" width="660" height="300" style="width:660px;height:300px;font-family:Asana-Math, Asana;background:transparent;"><g><g><g><text x="11" y="104" style="white-space:pre;stroke:none;fill:rgb(0,0,0);fill-opacity:1;font-size:15px;font-family:Arial, Helvetica, sans-serif;font-weight:400;font-style:normal;dominant-baseline:text-before-edge;text-decoration:none solid rgb(0, 0, 0);">El banco central</text></g></g><g><g><text x="11" y="125" style="white-space:pre;stroke:none;fill:rgb(0,0,0);fill-opacity:1;font-size:15px;font-family:Arial, Helvetica, sans-serif;font-weight:400;font-style:normal;dominant-baseline:text-before-edge;text-decoration:none solid rgb(0, 0, 0);">compra bonos</text></g></g></g><g><g><g><text x="166.8359375" y="109.1015625" style="white-space:pre;stroke:none;fill:rgb(0,0,0);fill-opacity:1;font-size:13.5px;font-family:Arial, Helvetica, sans-serif;font-weight:400;font-style:normal;dominant-baseline:text-before-edge;text-decoration:none solid rgb(0, 0, 0);">Se incrementa </text></g></g><g><g><text x="166.8359375" y="128" style="white-space:pre;stroke:none;fill:rgb(0,0,0);fill-opacity:1;font-size:13.5px;font-family:Arial, Helvetica, sans-serif;font-weight:400;font-style:normal;dominant-baseline:text-before-edge;text-decoration:none solid rgb(0, 0, 0);">la oferta de dinero</text></g></g></g><g><g><g><text x="338" y="113" style="white-space:pre;stroke:none;fill:rgb(0,0,0);fill-opacity:1;font-size:15px;font-family:Arial, Helvetica, sans-serif;font-weight:400;font-style:normal;dominant-baseline:text-before-edge;text-decoration:none solid rgb(0, 0, 0);">Cae la tasa de </text></g></g><g><g><text x="338" y="134" style="white-space:pre;stroke:none;fill:rgb(0,0,0);fill-opacity:1;font-size:15px;font-family:Arial, Helvetica, sans-serif;font-weight:400;font-style:normal;dominant-baseline:text-before-edge;text-decoration:none solid rgb(0, 0, 0);">interés Real</text></g></g></g><g><g><g><g transform="matrix(1,0,0,1,469.09375,72.796875)"><path transform="matrix(0.017,0,0,-0.017,0,0)" d="M478 506L262 713L47 506L81 474L233 599L233 -172L292 -172L292 599L443 474Z" stroke="rgb(0,0,0)" stroke-opacity="1" stroke-width="8" fill="rgb(0,0,0)" fill-opacity="1"></path></g></g></g></g><g><g><g><text x="482" y="61" style="white-space:pre;stroke:none;fill:rgb(0,0,0);fill-opacity:1;font-size:15px;font-family:Arial, Helvetica, sans-serif;font-weight:400;font-style:normal;dominant-baseline:text-before-edge;text-decoration:none solid rgb(0, 0, 0);">Inversión</text></g></g></g><g><g><g><text x="483" y="111" style="white-space:pre;stroke:none;fill:rgb(0,0,0);fill-opacity:1;font-size:15px;font-family:Arial, Helvetica, sans-serif;font-weight:400;font-style:normal;dominant-baseline:text-before-edge;text-decoration:none solid rgb(0, 0, 0);">Deprecia</text></g></g><g><g><text x="483" y="133" style="white-space:pre;stroke:none;fill:rgb(0,0,0);fill-opacity:1;font-size:15px;font-family:Arial, Helvetica, sans-serif;font-weight:400;font-style:normal;dominant-baseline:text-before-edge;text-decoration:none solid rgb(0, 0, 0);">Peso </text></g><g><g><g><g><g transform="matrix(1,0,0,1,521.359375,146.5)"><path transform="matrix(0.017,0,0,-0.017,0,0)" d="M260 373L260 633C306 629 333 620 358 604C377 591 381 579 381 542L381 500L413 500C413 554 417 593 426 626C379 653 340 663 260 669C261 700 262 712 264 731L219 731L223 666C172 657 148 649 118 629C61 592 30 532 30 458C30 328 116 309 223 297L223 18C158 25 116 40 88 67C76 79 74 84 74 108L74 172L42 172C39 93 36 63 30 24C95 -2 161 -17 223 -18C221 -82 221 -95 219 -116L264 -116L260 -16C315 -5 341 5 374 27C437 68 471 132 471 207C471 341 375 361 260 373ZM260 292C358 277 392 246 392 173C392 92 340 32 260 18ZM223 379C137 390 105 421 105 494C105 541 121 580 151 604C171 620 187 626 223 630Z" stroke="rgb(0,0,0)" stroke-opacity="1" stroke-width="8" fill="rgb(0,0,0)" fill-opacity="1"></path></g></g></g></g></g></g></g><g><g><g><text x="488" y="175" style="white-space:pre;stroke:none;fill:rgb(0,0,0);fill-opacity:1;font-size:15px;font-family:Arial, Helvetica, sans-serif;font-weight:400;font-style:normal;dominant-baseline:text-before-edge;text-decoration:none solid rgb(0, 0, 0);">Precios</text></g></g></g><g><g><g><g transform="matrix(1,0,0,1,473.09375,188.796875)"><path transform="matrix(0.017,0,0,-0.017,0,0)" d="M478 506L262 713L47 506L81 474L233 599L233 -172L292 -172L292 599L443 474Z" stroke="rgb(0,0,0)" stroke-opacity="1" stroke-width="8" fill="rgb(0,0,0)" fill-opacity="1"></path></g></g></g></g><g><g><g><text x="575" y="100.5" style="white-space:pre;stroke:none;fill:rgb(0,0,0);fill-opacity:1;font-size:13.5px;font-family:Arial, Helvetica, sans-serif;font-weight:400;font-style:normal;dominant-baseline:text-before-edge;text-decoration:none solid rgb(0, 0, 0);">Aumenta</text></g></g><g><g><text x="575" y="119.3984375" style="white-space:pre;stroke:none;fill:rgb(0,0,0);fill-opacity:1;font-size:13.5px;font-family:Arial, Helvetica, sans-serif;font-weight:400;font-style:normal;dominant-baseline:text-before-edge;text-decoration:none solid rgb(0, 0, 0);">Demanda</text></g></g><g><g><text x="575" y="138.296875" style="white-space:pre;stroke:none;fill:rgb(0,0,0);fill-opacity:1;font-size:13.5px;font-family:Arial, Helvetica, sans-serif;font-weight:400;font-style:normal;dominant-baseline:text-before-edge;text-decoration:none solid rgb(0, 0, 0);">Agregada</text></g></g></g></svg>
</svg>
